<svg xmlns="http://www.w3.org/2000/svg" viewBox="0 0 317.02 138.31"><defs><style>.cls-1{fill:#d6ae74;}</style></defs><g id="Layer_2" data-name="Layer 2"><g id="Layer_1-2" data-name="Layer 1"><path class="cls-1" d="M202.07,61.63c-12.54,0-21.7-3.32-27.26-9.91-7.21-8.53-6.54-20.16-4.7-28.42,3.31-14.92-2-18.78-2.45-19a2.22,2.22,0,0,1-1.09-2.88A2.31,2.31,0,0,1,169.51.15c27,10.09,42.21,22.37,45.26,36.49,3,13.79-6.91,23.82-7.33,24.24a2.26,2.26,0,0,1-1.48.65C204.63,61.6,203.33,61.63,202.07,61.63Zm3.78-2.35ZM174.65,7c1.46,4.48,1.42,10.27-.13,17.24-1.62,7.26-2.28,17.41,3.73,24.52,5.05,6,14,8.75,26.56,8.26,1.85-2.17,7.64-9.88,5.54-19.52-1.19-5.45-4.71-10.76-10.45-15.77C193.88,16.51,185.41,11.57,174.65,7Z"/><path class="cls-1" d="M205.49,3.32a29,29,0,0,0-16.86,5.39c.75.41,1.48.81,2.19,1.23s1.49.86,2.2,1.3c12.45,7.6,19.75,16.1,21.75,25.4a26.47,26.47,0,0,1-4,19.89A30.93,30.93,0,0,1,209,59.15a21.71,21.71,0,0,1-1.51,1.73,2.26,2.26,0,0,1-1.48.65c-.71,0-1.39,0-2.09.06.54,0,1.08,0,1.62,0a29.16,29.16,0,0,0,0-58.31Z"/><path class="cls-1" d="M204.12,59.34s0-12.34-19.37-39.87"/><path class="cls-1" d="M201.86,59.34s0,0,0-.06v-.13c0-.09,0-.17,0-.27s0-.4,0-.61c-.06-.42-.08-.84-.16-1.27-.12-.85-.31-1.72-.5-2.59s-.41-1.75-.68-2.61l-.38-1.31c-.14-.43-.29-.86-.43-1.29l-.44-1.3c-.14-.43-.31-.86-.47-1.29-.33-.85-.63-1.72-1-2.57l-1.07-2.55L195.54,39c-.19-.42-.38-.85-.58-1.26l-.62-1.25L193.1,34c-.87-1.64-1.74-3.28-2.64-4.91s-1.84-3.23-2.79-4.83l-2.92-4.77,3.39,4.45c1.11,1.51,2.18,3,3.28,4.55s2.1,3.1,3.15,4.66l1.5,2.38.75,1.2.72,1.21L199,40.36l1.35,2.49c.46.82.86,1.69,1.29,2.53.21.43.43.85.63,1.28l.58,1.31c.2.43.4.86.59,1.3l.54,1.34c.37.88.68,1.8,1,2.71s.6,1.86.84,2.83c.14.48.23,1,.34,1.48.05.26.09.53.14.79s0,.27.05.42l0,.21c0,.07,0,.2,0,.29Z"/><path class="cls-1" d="M21.61,109.41c-.09.09-.18.09-.18.18-.45.18-.9.45-1.36.63s-1,.45-1.44.72a3.47,3.47,0,0,1-1.63.54,19,19,0,0,0-2.25.18,3.9,3.9,0,0,1-.45-.09c-.18,0-.36-.09-.45,0a2.69,2.69,0,0,1-2.35-.18,2.63,2.63,0,0,0-.81-.18,4.32,4.32,0,0,1-2.26-.81c-.54-.27-1.08-.45-1.71-.72-.18-.09-.27-.27-.46-.36A9.64,9.64,0,0,0,4.91,108a2.92,2.92,0,0,1-.9-1.17c-.27-.45-.36-1.08-.72-1.44s-.73-.64-.64-1.18c-.81-.54-.63-1.44-.9-2.25-.09-.09-.18-.27-.27-.37a1.65,1.65,0,0,1-.27-1.44,4.64,4.64,0,0,0-.18-1A3.67,3.67,0,0,1,.67,97.4,6.72,6.72,0,0,0,.4,95.6a.57.57,0,0,1,0-.54.55.55,0,0,0-.09-.64C0,94,.22,93.61.22,93.16s.36-1-.18-1.53c-.09,0,0-.36.09-.54A2.17,2.17,0,0,0,.22,90a9.78,9.78,0,0,1,.09-1.62V88.2a1.45,1.45,0,0,1,0-1.36c.09-.36-.09-.72,0-1.08.09-1.08-.18-2.17.27-3.25a2.77,2.77,0,0,0,.09-.9c0-.45.09-.9.09-1.36a2.49,2.49,0,0,0,.09-.81,1.18,1.18,0,0,1,.27-.9.91.91,0,0,0,.09-.27A4.79,4.79,0,0,1,1.57,76a10.59,10.59,0,0,0,.63-1.8A1.7,1.7,0,0,1,2.84,73c.18,0,.18-.18.27-.36.09-.54,0-1.17.72-1.26A.47.47,0,0,0,4,71.05a1.33,1.33,0,0,1,.9-1.17c.27-.19.45-.64.72-.91s.63-.54.91-.81a4.23,4.23,0,0,0,.81-.54A2.65,2.65,0,0,1,9,66.72a1.69,1.69,0,0,0,.82-.36,4.13,4.13,0,0,1,2.34-.46c.27.09.54-.18.81-.27a3.49,3.49,0,0,1,2.35.18,3.2,3.2,0,0,0,.9.18,6.22,6.22,0,0,1,2.89.55,1.24,1.24,0,0,0,1.54-.09c.36-.28.9-.28,1.26-.46.09-.09.27-.09.27-.18l1.08-1.89a2.69,2.69,0,0,0,.36-.72.82.82,0,0,1,.73-.45,1.48,1.48,0,0,0,.27-.37,3.14,3.14,0,0,1,1.17-1.26c.27-.09.45-.54.72-.81a3.52,3.52,0,0,1,.9-.72,5.63,5.63,0,0,0,1.81-1.45c.09-.09.09-.18.18-.18.9-.45,1.81-.81,2.62-1.26a10,10,0,0,0,1.44-.63c.36-.28.63-.55,1.08-.45.1,0,.1,0,.19-.1.63-.81,1.71-.63,2.61-.9a14.27,14.27,0,0,1,2.08-.81,4,4,0,0,1,1.08-.09c.18-.09.45-.18.63-.27a1.78,1.78,0,0,1,.64-.09,4.84,4.84,0,0,0,2-.36,1.8,1.8,0,0,1,1.17-.18c.28-.09.55,0,.82-.18.09-.18.27-.27.36-.18a3.23,3.23,0,0,0,1.62-.18,1.14,1.14,0,0,1,.54.09,1,1,0,0,0,.73-.09.73.73,0,0,1,.63-.19c.18,0,.45.1.63.1s.45-.19.63-.1a2.05,2.05,0,0,0,1.63-.27h.18a.82.82,0,0,0,1-.09c.27-.18.72,0,1.17,0h1.36c.18,0,.45.09.63.09h.81a3.9,3.9,0,0,1,.45-.09h.72c.09,0,.09.09.18.09a13.51,13.51,0,0,0,1.81-.18h.45a2.3,2.3,0,0,0,1.35,0,1.51,1.51,0,0,1,.64,0h.72a.81.81,0,0,1,.45-.09,1.82,1.82,0,0,0,1.53,0h.46c.54.09,1.08.27,1.71.36.27,0,.45-.18.72-.18a7.19,7.19,0,0,1,1.45.18c.45,0,1-.09,1.44-.09.18,0,.36-.09.54-.09a7.8,7.8,0,0,0,1.45.09.67.67,0,0,1,.45.09,3.72,3.72,0,0,0,2,.18,12.92,12.92,0,0,1,2.71.1c.18,0,.36.09.54.09a10,10,0,0,1,1.63.18c.09,0,.18-.09.36-.09s.36-.09.36,0c.45.36,1,.09,1.44.09a15.11,15.11,0,0,1,2,.36,1.94,1.94,0,0,0,.72,0c.18-.09.45,0,.72,0a1.7,1.7,0,0,0,.72.18,7.51,7.51,0,0,1,2.44.27c.09,0,.27.09.36.09.45,0,.9.09,1.36.09.27,0,.54-.09.81-.09s.36-.09.45,0c.63.45,1.35-.09,2,.18a10.14,10.14,0,0,0,1.62.27c.09,0,.18.09.27.09a8.74,8.74,0,0,1,3.43.18,4.06,4.06,0,0,1,1,.27c.55,0,1.09-.09,1.63-.09h.18c.54.45,1.26,0,1.8.45.09,0,.18.09.27.09.55-.45,1.09.09,1.72-.09.09-.09.36.09.54.09a5.53,5.53,0,0,0,1,.27,13.55,13.55,0,0,1,3.34.27c.63.09,1.36,0,2.08.09a6.38,6.38,0,0,1,1.26.09,10.76,10.76,0,0,1,1.54.37c.09,0,.18-.1.27-.1.36-.17.72-.27,1,.1.09.09.27,0,.45,0s.36-.18.45-.1c.45.28.82.1,1.27.1a13.65,13.65,0,0,1,1.89.27,1.56,1.56,0,0,0,.9-.09h.46a17.48,17.48,0,0,1,2.16.18c1,0,2,.09,3,.18a7.88,7.88,0,0,1,1.44.18h1.72a.69.69,0,0,1,.45.18.31.31,0,0,1,.18.09c.63-.09,1.17-.09,1.72-.18h.54l2.25.27a.33.33,0,0,0,.27-.09c.46-.36.91-.18,1.45-.18.36,0,.72.09,1.08.09h1.36a1.75,1.75,0,0,0,.72-.09c.45-.27.81.27,1.17.09a1.51,1.51,0,0,1,1.08-.09c.27.18.64,0,.91,0a4.07,4.07,0,0,1,1.8-.09c.27.18.72-.09,1.17-.18s1.18-.09,1.81-.18,1.17-.27,1.72-.36h.27a5.75,5.75,0,0,0,1.26-.1,2.58,2.58,0,0,0,.81-.27c.63-.09,1.36-.27,2.08-.36.27-.09.45-.18.72-.27l1.08-.27c.18-.09.27-.09.36-.18a.8.8,0,0,1,.82-.36c.36-.09.72-.45,1.08-.54,1.17-.27,1.89-1.26,2.8-1.9a1.64,1.64,0,0,1,1-.36c.63,0,1.26-.09,1.9-.09.27,0,.45.18.72.36s.36.36.54.45c.45.37.9.64,1.26,1,.09,0,.18.18.18.27.09.45.18,1,.27,1.53a3.7,3.7,0,0,1-.27.72c0,.19-.18.27-.18.46a1.39,1.39,0,0,1-.81,1.17,8.44,8.44,0,0,0-1.08.81c-.18.09-.36.27-.54.36-.64.36-1.27.63-1.9,1-.09.09-.27.18-.36.27s-.36.36-.72.18h-.27a9.68,9.68,0,0,1-1.36.63,3.81,3.81,0,0,0-.63.45c-.09.09-.27.09-.36.18a3.8,3.8,0,0,0-1.08.27c-.54.36-1.09.27-1.63.45-.18,0-.36.18-.54.18l-.81.27a14.76,14.76,0,0,0-1.72.36,4,4,0,0,1-1.53.09,10.49,10.49,0,0,0-1.63.28,5.54,5.54,0,0,1-1.62.27,5.35,5.35,0,0,0-1.72.18,7,7,0,0,0-1.35.18c-.18,0-.27,0-.36-.09-.54-.36-1.08,0-1.53.18-.09,0-.18.09-.28.09a13.33,13.33,0,0,0-1.71-.27,22.54,22.54,0,0,0-2.35.18H138.4a2,2,0,0,0-.72.09c-.09,0-.27.09-.45,0a4.44,4.44,0,0,0-2.17-.09,6.81,6.81,0,0,1-1.35-.09c-.09,0-.27-.09-.37-.09a1.82,1.82,0,0,1-1.53,0h-.45c-.45,0-.9.09-1.35.09-.91,0-1.9-.09-2.8-.09a.67.67,0,0,1-.45-.09,1.65,1.65,0,0,0-1.45-.09.91.91,0,0,0-.27.09c-.45-.36-1-.18-1.44-.18-.09,0-.18-.09-.27-.09-.27-.09-.54-.27-.82-.18A3,3,0,0,1,121,63l-1-.27h-.18a6.78,6.78,0,0,1-1.9-.19c-.09,0-.27.09-.36.09a2,2,0,0,1-.72-.09c-.18,0-.45-.09-.63-.09a8,8,0,0,0-1.45-.18h-1.44a3.65,3.65,0,0,0-1.72-.09,10.38,10.38,0,0,1-2.34-.27c-.91-.18-1.9-.09-2.89-.18a3.83,3.83,0,0,1-1-.18,4.71,4.71,0,0,1-.91-.27c-.09,0-.36-.09-.45,0-.27.27-.63.09-.9,0a5.09,5.09,0,0,0-1.17,0c-.27,0-.55,0-.64-.09a.86.86,0,0,0-.63-.18,5.94,5.94,0,0,1-1.26.09c-.36,0-.63-.09-.9-.09s-.27-.09-.46-.09a2.55,2.55,0,0,0-2.16-.18c-.18,0-.45-.09-.72-.09l-2.71-.27c-.36-.09-.72-.18-1-.27a.86.86,0,0,0-.46.09,1.06,1.06,0,0,1-.9-.09c-.09-.09-.36,0-.54-.09h-.9a7.57,7.57,0,0,1-2-.27c-.63-.18-1.26.09-1.89,0-1.36-.18-2.71-.36-4.06-.45h-.91c-.27,0-.63.09-.81-.28h-.36a1.24,1.24,0,0,1-1-.09c-.09-.09-.27,0-.36,0A3.24,3.24,0,0,1,75,58.86a1.33,1.33,0,0,0-1.17,0c-.09.09-.45,0-.64,0-.81.18-1.44-.27-2.25-.27a4.52,4.52,0,0,0-1.08.18c-.19,0-.46-.09-.55-.09A1.44,1.44,0,0,0,68,58.59a.91.91,0,0,0-.27.09c-.54-.36-1.08-.18-1.63-.18-.09,0-.18-.09-.36-.18a4.57,4.57,0,0,0,.64-.36v-.09a2.06,2.06,0,0,0-.73-.09v.63h-.81c-.27,0-.63.09-.9.09-.09,0-.27.09-.36.09-.36-.27-.63-.09-.91,0H61.59a2.86,2.86,0,0,0-.81-.27c-.27,0-.45.18-.63.18a1.14,1.14,0,0,1-.54.09H56.9a5.39,5.39,0,0,1-2.08,0h-.27a4.52,4.52,0,0,1-2.89.18h-.18c-1.26.36-2.52.09-3.79.64a1.09,1.09,0,0,1-1.17,0,1.62,1.62,0,0,0-1.08.18c-.27.09-.46.27-.82.18a1.32,1.32,0,0,0-1,.18,4.12,4.12,0,0,1-2.08.45,1.28,1.28,0,0,0-.54.18c-.27.09-.45.27-.72.36a5.44,5.44,0,0,0-2,.54,1.28,1.28,0,0,1-.82.27c-.54-.09-.9.27-1.35.63l-.54.27c-.36.1-.63.19-1,.28l-.19-.18h-.09a.8.8,0,0,1-.45.72c-.27.18-.45.45-.72.63-.09.09-.18.09-.27.18A2.59,2.59,0,0,0,31,65.54c-.1,0-.1.09-.19.18-.36.09-.72.27-.63.82,0,.09-.18.18-.18.18-.72.09-.72.72-1,1.08a3,3,0,0,1-.27.54,4.59,4.59,0,0,0-.9,1.9c-.18.36-.46.72-.64,1.17-.09.18,0,.45-.09.72a2.24,2.24,0,0,1-.09.72,3,3,0,0,0-.27,1.54v.45c-.09.27-.45.63-.36.9.09.45.09.72-.27,1,0,.1-.09.19-.09.28a1.54,1.54,0,0,1-1.44,1.17c-.73.09-1.45.27-2.17.36a3.2,3.2,0,0,1-2.08-.63,3.72,3.72,0,0,1-1.17-2.08c-.09-.18-.27-.36-.36-.54a2,2,0,0,1-.27-.45c-.18-.27-.27-.63-.45-.9A5.82,5.82,0,0,0,16.92,73a2.22,2.22,0,0,0-1.36-.36c-.72.09-1.44-.09-2.17,0a11.25,11.25,0,0,0-1.71.27.31.31,0,0,0-.18.09c-.18.64-.81.64-1.26,1a.91.91,0,0,0-.36.63c0,.18-.28.36-.37.54l-.27.27c-.27.45-.45.9-.72,1.45-.09.09-.09.09-.09.18A16.23,16.23,0,0,0,8,78.81a7.17,7.17,0,0,0-.27,1.35A6.25,6.25,0,0,1,7.44,82a2.89,2.89,0,0,0-.09,1.26v.64a2.63,2.63,0,0,0-.18.81,12.06,12.06,0,0,0-.09,1.8c0,.72.09,1.54.09,2.26S7,89.91,7,90.45a3.5,3.5,0,0,0,.27.91c0,.36-.45.54-.27.9a6.44,6.44,0,0,1,.27,2.25c.18,1.09.27,2.17.45,3.25a17.54,17.54,0,0,0,1.44,4.16c.09.18.09.45.18.63s.09.18.18.27a9.86,9.86,0,0,1,1.09,1c.18.09.36.27.54.36a3.81,3.81,0,0,1,.63.45c.09.09.18.09.36.18a2.24,2.24,0,0,1,.72.09c.27.09.54-.09.91-.09a5.88,5.88,0,0,1,1.26,0,3.71,3.71,0,0,0,1.9-.63A.33.33,0,0,1,17,104c.91-.36,1.27-1.17,1.81-1.8a7.76,7.76,0,0,0,.54-1.54,1,1,0,0,1,.09-.45A1.33,1.33,0,0,0,19.62,99a.44.44,0,0,1,.09-.27,2.38,2.38,0,0,0,.82-.82c0-.18.27-.18.36-.27a5.34,5.34,0,0,0,.72-.36c.09,0,.09-.09.18-.09.45.45.72-.36,1.26-.18s.91,0,1.36.09a3.49,3.49,0,0,1,1,.54,8,8,0,0,1,.63.91,1.88,1.88,0,0,1,.27,1.71v.54a2.24,2.24,0,0,1-.09.72c0,.1-.09.28-.09.37a1.42,1.42,0,0,1-.36,1.17v.36a3.9,3.9,0,0,1-.09.45c-.45.9-.9,1.72-1.26,2.53-.27.54-.55,1.17-1.36,1.26-.36.09-.36.18-.09.63C22.24,108.41,22,109,21.61,109.41Z"/><path class="cls-1" d="M51.48,112.12a12.62,12.62,0,0,0-1.89-.1,17.86,17.86,0,0,0-2.17-.27,4.08,4.08,0,0,1-1.44-.27c-.54-.18-1.08-.45-1.72-.63a.09.09,0,0,1-.09-.09c-.27-.54-.81-.54-1.26-.63a2.29,2.29,0,0,1-1.08-.72l-.54-.54c-.18-.09-.37-.28-.55-.37a.91.91,0,0,0-.09-.27c-.81.09-.9-.81-1.44-1-.09,0-.18-.18-.18-.27.09-.36-.18-.45-.36-.63s-.36-.45-.54-.63v-.09c-.54-.45-.54-1.18-.91-1.72a13.85,13.85,0,0,1-.72-1.71v-.09c-.18-.64-.45-1.27-.63-1.9-.09-.45-.09-.9-.18-1.35,0-.18.09-.27,0-.36-.36-.55-.09-1.18,0-1.72a10.83,10.83,0,0,1,0-1.71c0-.36-.36-.72-.09-1.18.09-.09,0-.27-.09-.36-.09-.27-.18-.54.09-.81a.54.54,0,0,0,.09-.36V90a4,4,0,0,0-.18-.9,1.28,1.28,0,0,1,.09-1c.18-.27,0-.73,0-1.09a2.12,2.12,0,0,1-.18-.72V84.5c.45-.54,0-1.09.09-1.63.09-.9.18-1.8.18-2.62,0-.18-.09-.36-.09-.54a3,3,0,0,1,0-1.26c.09-.54.27-1.08.36-1.53v-.28a1.69,1.69,0,0,1,.27-1.35c.45-.9.81-1.8,1.27-2.62.09-.27.36-.45.54-.72a14.16,14.16,0,0,1,1.08-1.71,6.13,6.13,0,0,1,1.26-1,.44.44,0,0,1,.27-.09c.64-.81,1.63-1,2.35-1.53a5.75,5.75,0,0,1,1.71-.72,9.16,9.16,0,0,1,2.17-.82,11.39,11.39,0,0,0,1.54-.27A2,2,0,0,1,50,65.72a2.3,2.3,0,0,0,1.08-.09,2,2,0,0,1,1.45-.09l2.61.27a1.31,1.31,0,0,1,.64.18c.27.09.54.09.81.18l1.89.55.09.09a1,1,0,0,0,1.09.36h.18c.45.72,1.53.63,1.89,1.44.09.18.27.18.36.27.28.09.46.27.73.36.09.09.27.18.36.36a4.5,4.5,0,0,1,.63.55c.09.09.18.27.27.36a1.75,1.75,0,0,1,.81,1,16.65,16.65,0,0,0,1.27,2.17,5,5,0,0,1,.9,2,14.12,14.12,0,0,1,.45,2.08,17.34,17.34,0,0,1,.09,2.16,2.32,2.32,0,0,1-.09.73A2.45,2.45,0,0,0,67.73,82a9.26,9.26,0,0,1-.09,1.53,5.15,5.15,0,0,0,0,1.18c.18.63-.09,1.08-.09,1.62a1.53,1.53,0,0,0,.09.63v2a2,2,0,0,1-.09,1.44,1,1,0,0,0,.09.45.69.69,0,0,1,0,.82,1.14,1.14,0,0,0-.09.54v.27c.09.9.09,1.8.09,2.71a3,3,0,0,0,.09,1.26,1.87,1.87,0,0,1-.09,1,4.45,4.45,0,0,0-.09,1.54,2.83,2.83,0,0,1-.45,1.89.68.68,0,0,0-.18.36c.18.64-.18,1.09-.45,1.63,0,.09-.09.18-.09.27.09.63-.36,1-.73,1.44s-.63.73-.63,1.36c0,.09-.18.18-.27.27a9.53,9.53,0,0,1-.9,1.08,7.19,7.19,0,0,1-1.17,1.17c-.55.37-1.09.64-1.63,1a2.29,2.29,0,0,0-.9.72c-.09.27-.54.36-.9.45a19.09,19.09,0,0,0-2.17.63.48.48,0,0,0-.36.27,1.61,1.61,0,0,1-1.26.36,4.42,4.42,0,0,0-1.09,0,2.29,2.29,0,0,1-.63-.18A2.75,2.75,0,0,1,51.48,112.12Zm9.3-23c0-.36-.18-.63-.18-1a19.6,19.6,0,0,0,.27-2.26c0-.9-.36-1.81,0-2.71v-.09c0-.36-.09-.72-.09-1.08a9.76,9.76,0,0,0-.36-3.25,6.22,6.22,0,0,0-.81-2.26c0-.09-.09-.18-.09-.27.09-.36-.18-.45-.36-.63-.55-.45-.91-.9-1.45-1.26a3,3,0,0,0-1.8-1c-.18,0-.27-.09-.45-.18-.55-.18-1.18-.36-1.72-.54h-.09c-.27,0-.54-.09-.81-.09a.31.31,0,0,0-.18-.09H50.49a9.92,9.92,0,0,0-1.62.18c-.09,0-.18.18-.27.18l-.73.27c-.72.37-1.35.73-2.07,1.09l-.09.09c-.18.09-.36.36-.54.45-.91.27-1,1.17-1.72,1.62v.09c.09.64-.63,1-.45,1.72l-.09.09c-.45.27-.45.63-.45,1.08,0,.27-.09.45-.09.72.09.46-.09.82.09,1.27a1.63,1.63,0,0,1-.09,1.44.57.57,0,0,0,0,.54c0,.54.18,1,.18,1.45a6.77,6.77,0,0,1,0,1.35c0,.18-.09.27-.09.45a1.14,1.14,0,0,0-.09.54c0,.18.09.36.09.55a17.48,17.48,0,0,1-.18,2.16,8,8,0,0,0,.27,1.54,10.26,10.26,0,0,1-.18,2.34,1.14,1.14,0,0,0,.09.54c0,.27.09.46.09.73-.09,1-.18,2-.18,3.06-.09,0-.18.1-.45.19.72.09.72.09.72.63a1.7,1.7,0,0,0,.18.72,9.43,9.43,0,0,0,.72,1c.72.72.81,1.9,1.72,2.35a.09.09,0,0,0,.09.09A2.74,2.74,0,0,0,46.52,104a5.51,5.51,0,0,1,1.08.45,11.52,11.52,0,0,0,1.63.54,5.29,5.29,0,0,1,1.26.19,5.19,5.19,0,0,0,2.35-.09.31.31,0,0,1,.27-.1h1.17a1.67,1.67,0,0,0,.63-.18c.46-.18.82-.45,1.27-.63A3.92,3.92,0,0,0,58,103a2.17,2.17,0,0,1,.54-.72,2,2,0,0,0,1-1.27c.45-.81,1.17-1.53.81-2.61l.09-.09a1.4,1.4,0,0,0,.18-1.18v-.27a17.7,17.7,0,0,0,.27-2.16,5.43,5.43,0,0,0-.18-2.08,4.72,4.72,0,0,1,.18-1.9c.09-.09.27-.09.36-.18v-.18H61C60.87,89.91,60.87,89.46,60.78,89.1Z"/><path class="cls-1" d="M90.84,112.12a12.76,12.76,0,0,0-1.9-.1,17.7,17.7,0,0,0-2.16-.27,4.09,4.09,0,0,1-1.45-.27c-.54-.18-1.08-.45-1.71-.63a.09.09,0,0,1-.09-.09c-.27-.54-.82-.54-1.27-.63a2.29,2.29,0,0,1-1.08-.72l-.54-.54c-.18-.09-.36-.28-.54-.37a.91.91,0,0,0-.09-.27c-.82.09-.91-.81-1.45-1-.09,0-.18-.18-.18-.27.09-.36-.18-.45-.36-.63s-.36-.45-.54-.63v-.09c-.54-.45-.54-1.18-.9-1.72a15.67,15.67,0,0,1-.73-1.71v-.09c-.18-.64-.45-1.27-.63-1.9-.09-.45-.09-.9-.18-1.35,0-.18.09-.27,0-.36-.36-.55-.09-1.18,0-1.72a10.83,10.83,0,0,1,0-1.71c0-.36-.36-.72-.09-1.18.09-.09,0-.27-.09-.36-.09-.27-.18-.54.09-.81a.54.54,0,0,0,.09-.36V90a4,4,0,0,0-.18-.9,1.28,1.28,0,0,1,.09-1c.18-.27,0-.73,0-1.09a2.12,2.12,0,0,1-.18-.72V84.5c.45-.54,0-1.09.09-1.63.09-.9.18-1.8.18-2.62,0-.18-.09-.36-.09-.54a3,3,0,0,1,0-1.26c.09-.54.27-1.08.36-1.53v-.28a1.69,1.69,0,0,1,.27-1.35c.46-.9.82-1.8,1.27-2.62.09-.27.36-.45.54-.72a14.16,14.16,0,0,1,1.08-1.71,6.17,6.17,0,0,1,1.27-1,.44.44,0,0,1,.27-.09c.63-.81,1.62-1,2.34-1.53a5.81,5.81,0,0,1,1.72-.72,8.92,8.92,0,0,1,2.16-.82,10.88,10.88,0,0,0,1.54-.27,2,2,0,0,1,1.62-.09,2.34,2.34,0,0,0,1.09-.09,2,2,0,0,1,1.44-.09l2.62.27a1.3,1.3,0,0,1,.63.18c.27.09.54.09.81.18l1.9.55.09.09a1,1,0,0,0,1.08.36h.18c.45.72,1.54.63,1.9,1.44.09.18.27.18.36.27.27.09.45.27.72.36.09.09.27.18.36.36a4.5,4.5,0,0,1,.63.55c.09.09.18.27.27.36a1.81,1.81,0,0,1,.82,1,17.81,17.81,0,0,0,1.26,2.17,5,5,0,0,1,.9,2,14.12,14.12,0,0,1,.45,2.08,17.34,17.34,0,0,1,.09,2.16,2.32,2.32,0,0,1-.09.73,2.45,2.45,0,0,0,.18,1.35A9.26,9.26,0,0,1,107,83.5a5.15,5.15,0,0,0,0,1.18c.18.63-.09,1.08-.09,1.62a1.53,1.53,0,0,0,.09.63v2a2,2,0,0,1-.09,1.44,1,1,0,0,0,.09.45.69.69,0,0,1,0,.82,1.14,1.14,0,0,0-.09.54v.27c.09.9.09,1.8.09,2.71a3,3,0,0,0,.09,1.26,1.87,1.87,0,0,1-.09,1,4.45,4.45,0,0,0-.09,1.54,2.83,2.83,0,0,1-.45,1.89.68.68,0,0,0-.18.36c.18.64-.18,1.09-.45,1.63,0,.09-.09.18-.09.27.09.63-.36,1-.72,1.44s-.63.73-.63,1.36c0,.09-.18.18-.28.27a9.53,9.53,0,0,1-.9,1.08,7.19,7.19,0,0,1-1.17,1.17c-.54.37-1.08.64-1.63,1a2.29,2.29,0,0,0-.9.72c-.09.27-.54.36-.9.45a20.36,20.36,0,0,0-2.17.63.48.48,0,0,0-.36.27,1.61,1.61,0,0,1-1.26.36,4.34,4.34,0,0,0-1.08,0,2.34,2.34,0,0,1-.64-.18A2.74,2.74,0,0,1,90.84,112.12Zm9.29-23c0-.36-.18-.63-.18-1a19.6,19.6,0,0,0,.27-2.26c0-.9-.36-1.81,0-2.71v-.09c0-.36-.09-.72-.09-1.08a9.76,9.76,0,0,0-.36-3.25A6.22,6.22,0,0,0,99,76.46c0-.09-.09-.18-.09-.27.09-.36-.18-.45-.36-.63a16.52,16.52,0,0,0-1.45-1.26,3,3,0,0,0-1.8-1c-.18,0-.27-.09-.45-.18-.54-.18-1.18-.36-1.72-.54H93c-.27,0-.54-.09-.81-.09A.31.31,0,0,0,92,72.4H89.84a9.92,9.92,0,0,0-1.62.18c-.09,0-.18.18-.27.18-.27.09-.45.18-.72.27-.73.37-1.36.73-2.08,1.09l-.09.09c-.18.09-.36.36-.54.45-.9.27-1,1.17-1.72,1.62v.09c.09.64-.63,1-.45,1.72l-.09.09c-.45.27-.45.63-.45,1.08,0,.27-.09.45-.09.72.09.46-.09.82.09,1.27a1.63,1.63,0,0,1-.09,1.44.57.57,0,0,0,0,.54c0,.54.18,1,.18,1.45a6.77,6.77,0,0,1,0,1.35c0,.18-.09.27-.09.45a1.14,1.14,0,0,0-.09.54c0,.18.09.36.09.55a17.48,17.48,0,0,1-.18,2.16,8,8,0,0,0,.27,1.54,10.26,10.26,0,0,1-.18,2.34,1.14,1.14,0,0,0,.09.54c0,.27.09.46.09.73-.09,1-.18,2-.18,3.06-.09,0-.18.1-.45.19.72.09.72.09.72.63a1.7,1.7,0,0,0,.18.72,9.43,9.43,0,0,0,.72,1c.73.72.82,1.9,1.72,2.35a.09.09,0,0,0,.09.09A2.74,2.74,0,0,0,85.87,104a5.85,5.85,0,0,1,1.09.45,11.4,11.4,0,0,0,1.62.54,5.29,5.29,0,0,1,1.26.19,5.19,5.19,0,0,0,2.35-.09.31.31,0,0,1,.27-.1h1.17a1.67,1.67,0,0,0,.64-.18c.45-.18.81-.45,1.26-.63A4,4,0,0,0,97.34,103a2.17,2.17,0,0,1,.54-.72,2,2,0,0,0,1-1.27c.45-.81,1.17-1.53.81-2.61l.09-.09a1.4,1.4,0,0,0,.18-1.18v-.27a17.7,17.7,0,0,0,.27-2.16,5.43,5.43,0,0,0-.18-2.08,4.72,4.72,0,0,1,.18-1.9c.09-.09.27-.09.37-.18v-.18h-.28C100.22,89.91,100.22,89.46,100.13,89.1Z"/><path class="cls-1" d="M121.8,103.45a1.7,1.7,0,0,0,1.8.81,9.84,9.84,0,0,1,1.63-.09c.18,0,.36.18.54.18a18.81,18.81,0,0,0,2.25-.09h.54a4.5,4.5,0,0,1,1.09-.09c.36,0,.72.18,1.17.18a3.37,3.37,0,0,0,1,.09.82.82,0,0,1,.64-.09c.54.18,1.26.36,1.53,1a2.63,2.63,0,0,0,.63,1.08v2c.09.37.09.64-.27.82a.19.19,0,0,0-.18.18c0,.45-.36.45-.72.45-.36.45.18.27.27.45a2.1,2.1,0,0,1-1.81.72c-.36,0-.81.09-1.17.09s-.9.18-1.26,0-.91.09-1.36.09c-.27,0-.63-.09-.9-.09a.54.54,0,0,0-.36-.09,11.28,11.28,0,0,0-1.72.18c-.45,0-.81.09-1.17.09-.63,0-1.17-.09-1.8-.09-.45-.09-.91,0-1.45-.09h-.9a9.78,9.78,0,0,0-1.62.09H117a5.27,5.27,0,0,0-1.17-.18.09.09,0,0,1-.09-.09,8.34,8.34,0,0,1-1.26-1.26,2.64,2.64,0,0,1-.28-1.72,3.2,3.2,0,0,0-.09-2.07.41.41,0,0,1,0-.45c.27-.55,0-1-.09-1.45v-.54c0-.27.18-.63.18-.9a3.46,3.46,0,0,1,0-1.36c.18-.27-.09-.72-.09-1.08A17.57,17.57,0,0,1,114.3,98v-.28c-.45-.45-.27-1-.27-1.44V94.88c0-.09-.09-.18,0-.27.27-.82-.09-1.63,0-2.35a13.36,13.36,0,0,0,.09-1.9c0-.27-.09-.54-.09-.9,0-.54-.18-1.26.27-1.8.09-.19-.09-.55-.18-.82s-.27-.63.09-1.08a1.21,1.21,0,0,0,.18-.81c-.09-1.18-.27-2.26-.27-3.43a19.11,19.11,0,0,1,.18-2.26,3.9,3.9,0,0,0-.09-.45V76c0-.09-.09-.18-.09-.27,0-.36-.09-.54.18-.81a3.06,3.06,0,0,0,.09-.9c0-.18-.09-.45-.09-.63,0-.37.19-.82-.27-1.18-.18-.18.09-.72.09-1.08,0-.18.09-.45,0-.63a2.28,2.28,0,0,1,0-1.72,12.84,12.84,0,0,1,.73-1.62c.18-.63.72-.81,1.35-.91.09-.09.27-.09.36-.27a.81.81,0,0,1,.9-.09c.09,0,.18.09.18,0,.36-.27.73,0,1.09.09a5.75,5.75,0,0,1,2,1.27,1.15,1.15,0,0,1,.36,1.35,4.38,4.38,0,0,0-.09,1.08V71a15.26,15.26,0,0,0,.09,2,9.49,9.49,0,0,1,0,2.26,3.06,3.06,0,0,0,.09.9c.09.63-.36,1.27,0,1.9-.54.54,0,1.17-.27,1.8-.09.09.09.27.09.45v1.36c0,.18-.09.36-.09.63s.09.36.09.54a3.06,3.06,0,0,0,.09.9c0,.19-.09.28-.09.46s-.09.36,0,.54a2,2,0,0,1-.09,1.62v.27c.45.36.18.81.18,1.18a5.88,5.88,0,0,0,0,1.26,4.05,4.05,0,0,1,0,1.8v1.27a3,3,0,0,0,0,2c.09.09.09.18.09.36v5c0,.45-.09.9-.09,1.26,0,.09-.09.27,0,.36a.82.82,0,0,1-.09,1C121.25,102.55,121.53,103,121.8,103.45Z"/><path class="cls-1" d="M141.92,75.65c-.09-.27-.27-.45-.27-.72a5.31,5.31,0,0,1,.36-.72,3.75,3.75,0,0,0-.54.18c0-.27,0-.45.09-.54a1.39,1.39,0,0,0-.09-1.45.57.57,0,0,1,0-.54,2,2,0,0,0,.09-.72,8.78,8.78,0,0,1-.09-2.17,6.37,6.37,0,0,1,1.27-2.34,5.17,5.17,0,0,0,.72-.64c.09,0,.27-.09.36-.09.63.46,1.26.09,1.8,0a2.77,2.77,0,0,1,1.9-.09c.27.18.63,0,.9,0a.54.54,0,0,1,.36-.09c.45.09.9.36,1.45-.09.18-.09.63.18,1,.18a.09.09,0,0,0,.09.09,4,4,0,0,1,1.8.18c.55.09,1.18,0,1.72.09a5.56,5.56,0,0,1,1.08.46h.27a1,1,0,0,1,1.09.27c0,.09.18.09.18.09.81-.27,1.35.18,2,.45a5.57,5.57,0,0,1,1.27.63c1,.54,2.07,1.08,3.06,1.72.19.09.19.36.28.54.27.27.63.45.9.72a.9.9,0,0,1,.45.36c.36.54.81,1.08,1.17,1.71.54.82,1,1.63,1.54,2.53a.33.33,0,0,1,.09.27c0,.36,0,.63.36.81.09,0,.09.1.09.19l.54,1.08v.18c-.18.81.36,1.53.54,2.26.18.54.45,1,.18,1.35.09.54.09.9.18,1.35l.27.82a6.43,6.43,0,0,1,.18,1.8,7.74,7.74,0,0,0,.09,1.44c0,.37-.18.73.09,1.09v.09a8.73,8.73,0,0,1-.09,1.53,1.29,1.29,0,0,0,0,1,.91.91,0,0,0-.09.27,4.49,4.49,0,0,0-.27,2.16,10.4,10.4,0,0,1-.63,3.25.57.57,0,0,0,0,.54,1.49,1.49,0,0,1-.63,1.45.49.49,0,0,0-.27.45,1.8,1.8,0,0,1-.18,1.35,8.8,8.8,0,0,1-.63,1.27,8.33,8.33,0,0,0-.73,1.8,5.61,5.61,0,0,1-1.53,2.26c-.63.63-1.17,1.26-1.71,1.89-.19.27-.64.36-.91.45a.81.81,0,0,0-.54.54.73.73,0,0,1-.54.37.68.68,0,0,0-.63.36.7.7,0,0,1-.9.36c-.09,0-.18.09-.28.09a8.77,8.77,0,0,1-1,.45.79.79,0,0,0-.81.45c-.09.09-.36.09-.54.09a2.45,2.45,0,0,0-.81,0c-.73.18-1.36.45-2,.63a.31.31,0,0,0-.18.09c-.63-.45-1.26.36-1.81,0-.09,0-.18.09-.27.09a1,1,0,0,1-1,.09.33.33,0,0,0-.27-.09,18,18,0,0,1-3.16.27,3.9,3.9,0,0,0-.45-.09h-.54a2.24,2.24,0,0,1-.72-.09c-.18,0-.45-.09-.64,0a1.23,1.23,0,0,1-1.35-.09c-.09,0-.27-.09-.36-.09a2.77,2.77,0,0,1-2-.9c-.27-.36-.45-.81-.72-1.17v-.27a3.42,3.42,0,0,0-.09-1.9c0-.36-.09-.72.18-1a.44.44,0,0,0,.09-.27c-.45-.36-.18-.81-.18-1.18s.18-.81.18-1.17a2.9,2.9,0,0,1-.09-1.53,5.61,5.61,0,0,0-.27-1v-.45c.45-.45.27-.9.09-1.44a.54.54,0,0,1-.09-.36c.36-.54,0-1.09.09-1.63a7,7,0,0,1,.18-1.35c0-.09.09-.27.09-.36l-.27-2.17v-.18c.09-.9.18-1.71.27-2.62a3.43,3.43,0,0,0-.27-.9,1.28,1.28,0,0,1,.09-1c.18-.36.36-.81-.09-1.18a.54.54,0,0,1-.09-.36c.36-.54,0-1.08.09-1.62a1.3,1.3,0,0,1,.18-.63c0-.09.09-.09.09-.18-.18-.54.18-1.18-.18-1.81a.79.79,0,0,1-.09-.63,3,3,0,0,0-.09-2V80c.27-.63,0-1.26.09-1.8,0-.18.09-.36.09-.54,0-.54.09-1,.09-1.54v-.54C141.74,75.56,141.83,75.65,141.92,75.65Zm8.67-2.44a.54.54,0,0,0-.36.09c-.73.28-1.36.55-1.45,1.45a7.05,7.05,0,0,1-.45,1.26c-.09.27.09.54.18.91,0,.18.09.36.09.63s-.09.45-.09.72.09.45,0,.63a4.14,4.14,0,0,0-.18,1.81v.63a4.64,4.64,0,0,1,.18,1,2.61,2.61,0,0,0,0,1.44A19.06,19.06,0,0,1,148.6,86c0,.63-.18,1.26-.18,1.9a12.06,12.06,0,0,0-.09,1.8c0,.09.09.18.09.27v.72c0,.09-.09.19-.09.37-.09.63.45,1.26.09,2v.09a7.42,7.42,0,0,1,.18,2,8.68,8.68,0,0,0-.27,3.07,3.83,3.83,0,0,0,.18,1c0,.18.09.36,0,.45a1.64,1.64,0,0,0-.09,1.44,14.79,14.79,0,0,0,.18,2.08,1.24,1.24,0,0,0,.27.36,9.84,9.84,0,0,0,1,1.08.56.56,0,0,0,.63.18c.18-.09.36,0,.54,0s.54.09.81.09a13.43,13.43,0,0,1,1.9-.18,2.72,2.72,0,0,0,1.44-.45.33.33,0,0,1,.27-.09,1.62,1.62,0,0,0,1.54-.45c.09-.09.36-.09.45-.09l.54-.27c.18-.18.27-.36.45-.54,1.17-.81,2.44-1.63,2.89-3.07,0-.09.09-.09.09-.18.09-.27.27-.54.36-.81s.27-.63.45-1,.18-.45.27-.72,0-.72.18-1,.36-.54.27-.9c0-.18.09-.27.09-.45s.09-.55.09-.82a1.14,1.14,0,0,1,.09-.54.56.56,0,0,0,.18-.72v-.45a7.06,7.06,0,0,1,.18-1.26c0-.46.09-1,.09-1.54v-.54a.54.54,0,0,1,0-.63.53.53,0,0,0,.09-.54,1.53,1.53,0,0,1-.09-1.63v-.27a14.87,14.87,0,0,1-.27-2,3,3,0,0,0-.45-1.53c-.09-.09-.09-.36-.09-.45.18-.27,0-.54-.09-.81a8.32,8.32,0,0,1-.63-1.27.33.33,0,0,1-.09-.27c.18-.45,0-.63-.27-.9a.77.77,0,0,1-.27-.45c-.18-1-1.17-1.54-1.72-2.44a.31.31,0,0,0-.18-.09,4.38,4.38,0,0,1-1.26-1l-.27-.27c-.54-.18-1.08,0-1.45-.54h-.27c-.45-.09-.9-.09-1.35-.18a4.78,4.78,0,0,0-2.26-.55C152,73.12,151.31,73.12,150.59,73.21Z"/><path class="cls-1" d="M192.92,112.12a12.68,12.68,0,0,0-1.9-.1,17.7,17.7,0,0,0-2.16-.27,4.13,4.13,0,0,1-1.45-.27c-.54-.18-1.08-.45-1.71-.63a.09.09,0,0,1-.09-.09c-.27-.54-.81-.54-1.27-.63a2.29,2.29,0,0,1-1.08-.72l-.54-.54c-.18-.09-.36-.28-.54-.37a.91.91,0,0,0-.09-.27c-.81.09-.9-.81-1.45-1-.09,0-.18-.18-.18-.27.09-.36-.18-.45-.36-.63s-.36-.45-.54-.63v-.09c-.54-.45-.54-1.18-.9-1.72a13.85,13.85,0,0,1-.72-1.71v-.09c-.18-.64-.45-1.27-.64-1.9-.09-.45-.09-.9-.18-1.35,0-.18.09-.27,0-.36-.36-.55-.09-1.18,0-1.72a10.83,10.83,0,0,1,0-1.71c0-.36-.36-.72-.09-1.18.09-.09,0-.27-.09-.36-.09-.27-.18-.54.09-.81a.54.54,0,0,0,.09-.36V90a4,4,0,0,0-.18-.9,1.28,1.28,0,0,1,.09-1c.18-.27,0-.73,0-1.09a2.12,2.12,0,0,1-.18-.72V84.5c.45-.54,0-1.09.09-1.63.09-.9.18-1.8.18-2.62,0-.18-.09-.36-.09-.54a3,3,0,0,1,0-1.26c.09-.54.27-1.08.37-1.53v-.28a1.66,1.66,0,0,1,.27-1.35c.45-.9.81-1.8,1.26-2.62.09-.27.36-.45.54-.72a14.16,14.16,0,0,1,1.08-1.71,6.45,6.45,0,0,1,1.27-1,.44.44,0,0,1,.27-.09c.63-.81,1.62-1,2.34-1.53a5.92,5.92,0,0,1,1.72-.72,8.84,8.84,0,0,1,2.17-.82,11,11,0,0,0,1.53-.27,2,2,0,0,1,1.62-.09,2.33,2.33,0,0,0,1.09-.09,2,2,0,0,1,1.44-.09l2.62.27a1.3,1.3,0,0,1,.63.18c.27.09.54.09.81.18l1.9.55.09.09a1,1,0,0,0,1.08.36h.18c.45.72,1.54.63,1.9,1.44.09.18.27.18.36.27.27.09.45.27.72.36.09.09.27.18.36.36a4.5,4.5,0,0,1,.63.55c.09.09.18.27.27.36a1.73,1.73,0,0,1,.82,1,17.81,17.81,0,0,0,1.26,2.17,5,5,0,0,1,.9,2,14.12,14.12,0,0,1,.45,2.08,15.62,15.62,0,0,1,.1,2.16,2.11,2.11,0,0,1-.1.73,2.38,2.38,0,0,0,.19,1.35,10.49,10.49,0,0,1-.09,1.53,4.64,4.64,0,0,0,0,1.18c.17.63-.1,1.08-.1,1.62a1.39,1.39,0,0,0,.1.63v2a2,2,0,0,1-.1,1.44.89.89,0,0,0,.1.45.72.72,0,0,1,0,.82,1,1,0,0,0-.1.54v.27a24.46,24.46,0,0,1,.1,2.71,2.84,2.84,0,0,0,.09,1.26,2,2,0,0,1-.09,1,4.22,4.22,0,0,0-.1,1.54,2.83,2.83,0,0,1-.45,1.89.68.68,0,0,0-.18.36c.18.64-.18,1.09-.45,1.63,0,.09-.09.18-.09.27.09.63-.36,1-.72,1.44s-.63.73-.63,1.36c0,.09-.18.18-.27.27a8.7,8.7,0,0,1-.91,1.08,7.19,7.19,0,0,1-1.17,1.17c-.54.37-1.08.64-1.62,1a2.31,2.31,0,0,0-.91.72c-.09.27-.54.36-.9.45a20.36,20.36,0,0,0-2.17.63.48.48,0,0,0-.36.27,1.61,1.61,0,0,1-1.26.36,4.34,4.34,0,0,0-1.08,0,2.29,2.29,0,0,1-.63-.18A2.77,2.77,0,0,1,192.92,112.12Zm9.3-23c0-.36-.18-.63-.18-1a19.6,19.6,0,0,0,.27-2.26c0-.9-.37-1.81,0-2.71v-.09c0-.36-.09-.72-.09-1.08a9.51,9.51,0,0,0-.37-3.25,6.22,6.22,0,0,0-.81-2.26c0-.09-.09-.18-.09-.27.09-.36-.18-.45-.36-.63a18,18,0,0,0-1.44-1.26,3.05,3.05,0,0,0-1.81-1c-.18,0-.27-.09-.45-.18l-1.71-.54h-.09c-.28,0-.55-.09-.82-.09a.31.31,0,0,0-.18-.09h-2.16a9.92,9.92,0,0,0-1.63.18c-.09,0-.18.18-.27.18-.27.09-.45.18-.72.27-.72.37-1.35.73-2.08,1.09l-.09.09c-.18.09-.36.36-.54.45-.9.27-1,1.17-1.71,1.62v.09c.09.64-.64,1-.46,1.72l-.09.09c-.45.27-.45.63-.45,1.08,0,.27-.09.45-.09.72.09.46-.09.82.09,1.27a1.63,1.63,0,0,1-.09,1.44.57.57,0,0,0,0,.54c0,.54.18,1,.18,1.45A6.77,6.77,0,0,1,184,86c0,.18-.09.27-.09.45a1.14,1.14,0,0,0-.09.54c0,.18.09.36.09.55a17.48,17.48,0,0,1-.18,2.16,8,8,0,0,0,.27,1.54,10.26,10.26,0,0,1-.18,2.34,1.14,1.14,0,0,0,.09.54c0,.27.09.46.09.73-.09,1-.18,2-.18,3.06-.09,0-.18.1-.45.19.72.09.72.09.72.63a1.7,1.7,0,0,0,.18.72,11.1,11.1,0,0,0,.73,1c.72.72.81,1.9,1.71,2.35a.09.09,0,0,0,.09.09A2.71,2.71,0,0,0,188,104a5.51,5.51,0,0,1,1.08.45,11.4,11.4,0,0,0,1.62.54,5.38,5.38,0,0,1,1.27.19,5.15,5.15,0,0,0,2.34-.09.31.31,0,0,1,.27-.1h1.18a1.67,1.67,0,0,0,.63-.18c.45-.18.81-.45,1.26-.63a3.94,3.94,0,0,0,1.81-1.17,2.17,2.17,0,0,1,.54-.72,2,2,0,0,0,1-1.27c.45-.81,1.18-1.53.81-2.61l.09-.09a1.38,1.38,0,0,0,.19-1.18v-.27a17.7,17.7,0,0,0,.27-2.16,5.43,5.43,0,0,0-.18-2.08,4.55,4.55,0,0,1,.18-1.9c.09-.09.27-.09.36-.18v-.18h-.27C202.31,89.91,202.31,89.46,202.22,89.1Z"/><path class="cls-1" d="M243,89.55a.09.09,0,0,0,.09.09c.36-.36,1-.27,1.27-.81a2.73,2.73,0,0,0,.45-.63.81.81,0,0,0,.09-.45,5.32,5.32,0,0,1,.18-1.27,1.32,1.32,0,0,0,.18-1c-.09-.72.45-1.17.63-1.72a6.08,6.08,0,0,0,.18-1.26,3,3,0,0,1,.36-1.53,2.32,2.32,0,0,0,.18-1.09,1.81,1.81,0,0,1,.27-1,1.69,1.69,0,0,0,.36-1.44c-.09-.09,0-.27.09-.36.46-.46.37-1.18.55-1.72a18.59,18.59,0,0,0,.54-2.17,10.14,10.14,0,0,1,.27-1.62c.09-.45.36-1,.45-1.44s.09-.91.18-1.27a.67.67,0,0,1,.09-.45c.54-.63.09-1.17-.09-1.71a8.59,8.59,0,0,0-.45-.91.68.68,0,0,0-.36-.18h-1.45c-.27,0-.45-.09-.72-.09h-1.53a.79.79,0,0,0-.63-.09c-1,.36-1.72-.27-2.62-.36h-.18a5.93,5.93,0,0,1-3.07-.72c-.54-.27-.9-.63-1.44-.9a1.92,1.92,0,0,1-.73-.45l-1.35-1.09-.27-.54c-.09-.09-.18-.36-.27-.36-.54-.27-.63-.72-.81-1.17a6.48,6.48,0,0,1-.46-1.27,5.31,5.31,0,0,1-.18-1.26,1.33,1.33,0,0,1-.09-.63.9.9,0,0,1,.09-.81,2.72,2.72,0,0,0,.18-1.18c.09-.54-.09-1,.37-1.35a.27.27,0,0,0,0-.36,1.29,1.29,0,0,1,.63-1.27c.27-.09.45-.45.54-.72.09-.54.54-.63.81-.9a5.82,5.82,0,0,1,.81-.72c.09-.18.27-.18.45-.27s.28-.09.28-.18a1.16,1.16,0,0,1,1.08-.55h.09c.45-.72,1.17-.36,1.8-.63s1.18-.36,1.72-.54.81-.36,1.17,0h.18c.54-.36,1.09-.09,1.63,0s1-.09,1.44-.09a5.27,5.27,0,0,1,1.17.18,8.11,8.11,0,0,0,2.62.72c.27,0,.63.36.9.55s.73.45,1.18.63a2.3,2.3,0,0,1,1.17.9c0,.09.18.18.27.27.45.09.72.45,1,.9a14.05,14.05,0,0,1,.81,1.27c.09.09.27.18.45.36s.18.27.27.36c.18.45.36,1,.54,1.44a1.59,1.59,0,0,0,1.26.81,1.11,1.11,0,0,0,1.09-.18l1.08-.54c.09,0,.18.09.27.09a9.34,9.34,0,0,0,.9-.36,2.39,2.39,0,0,0,1.36-.63,4,4,0,0,1,1.44-.54,1.89,1.89,0,0,0,1-.36,3,3,0,0,1,1.54-.63c.27,0,.54-.28.9-.37a12.54,12.54,0,0,1,2-.63c.09-.09.27-.09.27-.18.45-.63,1.26-.63,1.89-.81a9.34,9.34,0,0,1,1.27-.36,5.38,5.38,0,0,1,1-.54c1-.27,2-.54,2.89-.81a.92.92,0,0,0,.45-.37c.18-.27.36-.27.63-.27a4.46,4.46,0,0,0,1.17-.36,1.37,1.37,0,0,1,.82-.18c.36-.09.63-.27,1-.36s.72-.18,1-.27a5.51,5.51,0,0,1,1.08-.45,1,1,0,0,1,.46-.09,1.89,1.89,0,0,0,1.35-.45c.09-.09.36-.09.63-.18a2.29,2.29,0,0,0,.63-.18c.18,0,.46-.09.64-.09a4,4,0,0,0,1.8-.46,1.46,1.46,0,0,1,1.35-.27.7.7,0,0,0,.46-.09c.45-.36,1.17-.27,1.71-.45s1.26,0,1.9-.36c.27-.18.72-.09,1.08-.09a1.3,1.3,0,0,1,.63-.18,1,1,0,0,1,.72,0,.57.57,0,0,0,.54,0,6.35,6.35,0,0,1,1.81-.27c.63,0,1.26.18,1.89.18s1.18-.18,1.81-.18a3.2,3.2,0,0,1,.9.18,10.65,10.65,0,0,0,2.89.36,1.28,1.28,0,0,1,.54.18l2,.54a2.29,2.29,0,0,1,.63.18l.27.27c.54.19,1.17.46,1.72.64.09.09.18.27.27.36s.18.27.36.27c.54.09.81.54,1.17.9l1.81,1.81a2,2,0,0,1,.27.45,1.88,1.88,0,0,0,.36.54c0,.09.18.18.18.27a4.15,4.15,0,0,1,.81,1.35,1.1,1.1,0,0,1,.27.91.27.27,0,0,0,0,.36,2.66,2.66,0,0,1,.45,2.43c0,.27-.45.54-.72.82-.09.09-.36.18-.45.36s-.27.27-.54.18a2.65,2.65,0,0,0-1.18.09,4.72,4.72,0,0,1-2.25.27c-.27,0-.54-.36-.81-.54l-.55-.54a1.55,1.55,0,0,1-.18-.46,1,1,0,0,0-.45-.81.33.33,0,0,1-.09-.27,1.28,1.28,0,0,0-.54-1.08,2.17,2.17,0,0,1-.54-.72.09.09,0,0,1-.09-.09c-.81-.46-1.63-1-2.35-1.36a1.28,1.28,0,0,0-.54-.18c-.36,0-.72,0-.81-.36a2.24,2.24,0,0,0-.72-.09,6.38,6.38,0,0,0-2.62-.27,5,5,0,0,1-1.63.09c-1-.09-2-.09-2.88-.09-.19,0-.37.09-.55.09l-1.17.27a28.51,28.51,0,0,0-2.89.36,4.52,4.52,0,0,0-1.17.45,3.9,3.9,0,0,0-.45.09,1.33,1.33,0,0,0-1.17.18,2.29,2.29,0,0,1-1.72.36h-.18c-.54.19-1.08.46-1.63.64s-1.17.54-1.89.54a3.7,3.7,0,0,0-.72.27c-.54.18-1.18.45-1.72.63-.36.09-.81.09-1.17.18a.69.69,0,0,0-.45.18c-.18.27-.36.36-.63.27a.91.91,0,0,0-1,.18,2.32,2.32,0,0,1-1.35.63,14.8,14.8,0,0,0-2,.82c-.9.36-1.8.72-2.7,1a8.36,8.36,0,0,0-.91.45,5.5,5.5,0,0,0-1.17.27c-.81.36-1.53.72-2.35,1.17-.09,0-.27.19-.36.1-.36-.19-.63.18-.9.27s-.45.09-.63.18a3.68,3.68,0,0,1-1.36.63,15,15,0,0,0-1.8.72,28,28,0,0,1-2.89,1.26c-.27.09-.54.09-.72.18a4.05,4.05,0,0,0-1.63.82c-.09,0-.09.09-.09.18a4.64,4.64,0,0,0-.18,1c-.27,1.08-.45,2.17-.72,3.16a3,3,0,0,0,0,.9,1.48,1.48,0,0,1-.18.9,2.05,2.05,0,0,0-.27,1.27,2.81,2.81,0,0,1-.36,1.71,1.28,1.28,0,0,0-.18.54,6.47,6.47,0,0,1-.54,2.62c-.09.18,0,.45-.09.72s-.09.46-.09.64-.09.36-.09.63a4.28,4.28,0,0,1-.63,2.07,1.72,1.72,0,0,0-.19,1c-.18.54-.09,1.26-.36,1.71A13.35,13.35,0,0,0,253,85c-.09.27-.09.63-.18.9a1.67,1.67,0,0,1-.18.63,3,3,0,0,0-.36,1.36c.09.27-.18.54-.36.81s-.27.27,0,.36c.45.18.27.45.09.63a1,1,0,0,0-.45,1.17,2.36,2.36,0,0,1-.36,1.36.53.53,0,0,0-.09.63.57.57,0,0,1,0,.54,2.09,2.09,0,0,0-.64,1.45c-.18.9-.45,1.71-.63,2.61-.27,1.09-.45,2.08-.63,3.07-.09.18-.18.27-.27.45a5.16,5.16,0,0,1-.27.91c-.09.45-.36.81-.18,1.26.09.09,0,.27-.09.45l-.54,1.35a.18.18,0,0,0,0,.28c.27.81-.27,1.44-.55,2.16-.09.18-.18.36-.09.45a.89.89,0,0,1-.27.91.67.67,0,0,0-.09.45,1.48,1.48,0,0,1-.81,1.35,3.35,3.35,0,0,1-1.8.63.31.31,0,0,0-.18.09l-3.7-.27a5.14,5.14,0,0,1-1-.54c-.18-.09-.27-.36-.45-.45-.27-.27-.45-.54-.27-.9a.17.17,0,0,0,0-.27c-.18-.73-.45-1.45-.63-2.17a4.38,4.38,0,0,1-.09-1.08c-.09-.45-.18-.82-.27-1.27s-.45-.63-.81-.81c-.09-.09-.28-.09-.37-.27-.36-.54-.81-.36-1.35-.18s-.9.36-1.08.9c0,.09-.18.18-.27.36s-.09.27-.18.45a4.42,4.42,0,0,1-.09,1.09c-.18.54-.46,1.08-.64,1.62a5.48,5.48,0,0,1-.18,1.27,3.22,3.22,0,0,1-.81,1.89,2.48,2.48,0,0,1-1.8.45,6,6,0,0,0-1.27.09,2,2,0,0,1-1.44-.09.54.54,0,0,0-.36-.09,2.84,2.84,0,0,1-1.9-.27,1.8,1.8,0,0,1-.72-1.71.17.17,0,0,0,0-.27c-.54-.55-.45-1.18-.54-1.81a3.42,3.42,0,0,0-.45-1.35c-.09-.64-.27-1.27-.36-2s-.45-1.44-.64-2.17c0,0-.09-.09,0-.09.19-.72-.27-1.08-.45-1.62-.09-.18-.18-.36-.09-.45.27-.45,0-.81-.18-1.27s-.18-1.17-.36-1.71a5.51,5.51,0,0,0-.45-1.08v-.91a1.35,1.35,0,0,0-.36-1c-.09,0-.09-.09-.09-.18L220.18,92c-.09-.09-.18-.27-.09-.36.18-.54-.18-.91-.36-1.45a4.52,4.52,0,0,1-.18-1.08c-.09-.09,0-.18-.09-.18-.46-.72-.09-1.54-.37-2.17s-.09-1.26-.63-1.8a3.1,3.1,0,0,1-.36-1.63c-.09-.54,0-1-.36-1.44a1.26,1.26,0,0,1-.27-.81c-.18-.73-.27-1.45-.45-2.26-.09-.63-.27-1.26-.36-2-.27-.82-.45-1.72-.63-2.53a2.46,2.46,0,0,0-.45-1.36c-.1-.09,0-.27,0-.36s0-.36-.1-.54a3.16,3.16,0,0,1-.45-1.8,9.78,9.78,0,0,1-.36-1.54,2.52,2.52,0,0,1,.18-2,1.79,1.79,0,0,1,1.45-.91,9.74,9.74,0,0,1,1.62,0l2.62.27c.09,0,.27,0,.27.09.36.73,1.08,1.36.9,2.35-.09.36.18.72.27,1.08a18.18,18.18,0,0,0,.45,2.17c.09.27.19.63.28,1a5.89,5.89,0,0,1,.45,2.17,5.46,5.46,0,0,0,.45,1.62,9.29,9.29,0,0,0,.36,1.54c.09.54.36,1.08.45,1.53a6.32,6.32,0,0,1,.45,2.26.69.69,0,0,0,.18.45.65.65,0,0,1,.18.72.4.4,0,0,0,0,.45,13.4,13.4,0,0,0,.45,1.54c.18.63.37,1.17.54,1.8,0,.18.1.27,0,.45a2.1,2.1,0,0,0,1.45,2.35l.9.27a.27.27,0,0,0,.36,0c.63-.36,1.36-.63,1.45-1.53,0-.09,0-.27.09-.27a.6.6,0,0,0,.18-.73.57.57,0,0,1,0-.54c.09-.27.18-.54.27-.9,0,0-.09-.09,0-.09.45-.45.27-1.08.45-1.53a17.47,17.47,0,0,1,.72-2.35.56.56,0,0,1,.72-.45.67.67,0,0,0,.45-.09c.46-.27.91-.09,1.36-.09h.81a3,3,0,0,1,.9,0l2,.27c.36,0,.63-.18.9.09a3.55,3.55,0,0,1,.45,1.26c.09,1,.36,2,.54,3s.64,1.63.82,2.44a4.77,4.77,0,0,0,.9,1.08A.74.74,0,0,1,243,89.55Zm4.7-31.14c.09-.09.18-.18.18-.27.18-.27.27-.54.45-.81a1.52,1.52,0,0,0-.45-2.26c-.36-.27-.91-.18-1.18-.63h-.18a9.77,9.77,0,0,0-2.25-.36,5.58,5.58,0,0,0-3,.36l-.54.27c-.91.36-1.27.91-1,1.81a2.36,2.36,0,0,0,.54,1.17,3.66,3.66,0,0,0,1.36.54,1.07,1.07,0,0,1,1,.36l.18.09c.63-.36,1.27,0,1.9-.09a6.75,6.75,0,0,1,1.8.18A9,9,0,0,1,247.71,58.41Z"/><path class="cls-1" d="M266.3,85.76a.27.27,0,0,0,0-.36c-.27-.27-.09-.54,0-.9a.33.33,0,0,0,.09-.27c-.45-.73,0-1.54-.09-2.26-.09-.18,0-.36-.09-.45a.82.82,0,0,1,0-.9c.09-.09.18-.28.09-.28a2.67,2.67,0,0,1-.09-1.44,8.67,8.67,0,0,0,0-1.53c0-.09-.09-.27-.09-.36a8.35,8.35,0,0,0,.18-3c0-.45-.27-.91-.27-1.36s-.09-1,.09-1.44a10.75,10.75,0,0,0,.18-2.35,1.7,1.7,0,0,0-.18-.72,1.51,1.51,0,0,1,.81-1.53.09.09,0,0,0,.09-.09,1.52,1.52,0,0,1,1.9-.46v.09c.54-.54,1.17-.09,1.8-.27s1.09.09,1.63.36c.09,0,.09.19.09.19a.68.68,0,0,1,.09.36c1,.72.54,1.89.72,2.88a1.78,1.78,0,0,1,.18.73c.09.27.09.54.18.81a9.37,9.37,0,0,0,.54,1.44,9.85,9.85,0,0,0,.73,1.45.9.9,0,0,0,.45.36,1.29,1.29,0,0,0,.27.18c-.09.63.45,1,.72,1.35a7.65,7.65,0,0,1,1.35,1.63c.36.9,1.18,1.26,1.72,2,.18.18.27.54.45.72a7.41,7.41,0,0,0,1.26,1.18c.09.18.27.27.27.45,0,.36.18.45.55.54s.45.45.18.81a.54.54,0,0,0-.09.36c.18-.09.27-.09.36-.18s.09-.09.18-.18c.54.36,1,.55,1.26,1.27.18.54.72.9,1.17,1.35.09.18.46.09.64.18s.36-.09.45,0a.94.94,0,0,0,1-.18,6.06,6.06,0,0,0,1-1.26c.27-.45.54-1.09,0-1.54,0-.09-.09-.09-.09-.18.09-.54.09-1.17.18-1.71V81a18.38,18.38,0,0,1,.18-3.88c0-.09-.09-.27-.09-.37a3.9,3.9,0,0,1-.09-.45,11.54,11.54,0,0,0,0-3.52,6.81,6.81,0,0,1,.09-1.35,4.52,4.52,0,0,0-.18-1.08,3.9,3.9,0,0,0-.09-.45c.09-.82.27-1.63.27-2.35,0-.54.45-.63.73-1,.81-.82,1.8-.73,2.88-.64.54.09,1.09.36,1.63.09.18-.09.81.37.9.55s.27.45.45.54c.36.18.36.36.18.63s-.18.45.09.63a.47.47,0,0,1-.09.72.57.57,0,0,0,0,.54,2.57,2.57,0,0,1,.09,2c-.09.27-.09.54-.18.81,0,.54-.18,1,.18,1.45,0,.09-.09.27-.09.36s-.09.36,0,.54a1.28,1.28,0,0,1-.09,1V76a2.06,2.06,0,0,1,.09,1.63c-.09.45-.27.81.09,1.26.18.18.09.54-.27.63a.68.68,0,0,0-.36.18v.09a1.14,1.14,0,0,0,.54.09,1.45,1.45,0,0,1-.45,1.81l.27.27c.45.18.36.45.27.81-.09.09-.18.27-.09.36.36.73,0,1.45-.09,2.26a5.45,5.45,0,0,0,0,1.71c0,.46.18.91-.45,1.27.72,0,.72.36.63.81a3,3,0,0,1,0,.9,5,5,0,0,0-.09,1.63v2c0,.09-.09.18-.09.27,0,.45.36,1,0,1.45a.17.17,0,0,0,.09.27.86.86,0,0,1,0,.81c-.09.09-.09.36,0,.36a1.55,1.55,0,0,1,.18,1.27,11.25,11.25,0,0,1-.27,1.71h-.18a.31.31,0,0,0-.09.18c-.09,0,0,.18,0,.18.36,0,.36.27.36.45s.09.54.09.72a14.66,14.66,0,0,1,0,2,10.14,10.14,0,0,1-.27,1.62,1.28,1.28,0,0,0,.18.55c0,.09.09.27.09.36,0,.63-.18,1.17-.18,1.8v1.09c.09.27.18.45,0,.72a4.2,4.2,0,0,0-.45.9c-.18.63-.63.81-1.35.81a7.42,7.42,0,0,0-2.44.09,2.08,2.08,0,0,1-1.9-.81,3.74,3.74,0,0,1-.63-3.07,25.44,25.44,0,0,0,0-2.62,13.29,13.29,0,0,1-.09-1.89c0-.18.09-.27,0-.36-.54-.54-.45-1.27-.63-1.9a3,3,0,0,0-.63-1.44c-.36-.45-.54-1-.9-1.45-.09,0,0-.27.09-.36l.27-.27a12.63,12.63,0,0,1-1.72-1.35c-.18-.18-.18-.54-.36-.81a2.09,2.09,0,0,0-1.08-1.09.48.48,0,0,1-.27-.36,2.19,2.19,0,0,0-.9-1.26c-.28-.09-.46-.36-.73-.63s-.45-.54-.63-.82l-.27-.27a.67.67,0,0,0-.54-.63q-.27-.14-.27-.27c-.09-.63-.63-.81-1-1.17a1,1,0,0,1-.36-.27c-.37-.36-.73-.82-1.09-1.18-.18-.27-.54-.45-.63-.63a1.35,1.35,0,0,0-.81-.63.68.68,0,0,1-.36-.18c-.09,0-.18-.09-.27,0-.55.36-1.36.36-1.72,1.08a3.71,3.71,0,0,0-.27,2c.09.54,0,1.08.09,1.53s-.09.73.09,1a1.75,1.75,0,0,1,0,1.35,1.62,1.62,0,0,0,0,1.44v.18a19,19,0,0,1-.18,2.26c0,.27.09.45.09.72v.18a14.73,14.73,0,0,1-.09,2c0,.18.09.36.09.54a5.07,5.07,0,0,0,0,1.17,4.84,4.84,0,0,0,.09,1.18c0,.27.09.54,0,.72-.36.36-.09.72-.09,1.17a8.85,8.85,0,0,1-.09,1.54v1.26c0,.72.09,1.53.09,2.26a2.77,2.77,0,0,1-.27,1.17.9.9,0,0,1-.45.36,13.25,13.25,0,0,1-1.72.63h-.54a1,1,0,0,0-1,0h-.18c-.54-.45-1.17-.18-1.72-.36-.09-.09-.09-.09-.18-.09a2.17,2.17,0,0,1-.81-2.16c.09-.19,0-.37,0-.55s-.09-.09-.09-.18a2.61,2.61,0,0,0,0-1.44,6.76,6.76,0,0,1,.09-1.9v-1c.09-.18.18-.45.09-.54-.45-.63-.18-1.35-.18-2.08a10.89,10.89,0,0,0,.09-1.71,13.36,13.36,0,0,0,.09-1.9c0-.36-.09-.72-.09-1.17-.09-.09,0-.27,0-.36V94.24a4.38,4.38,0,0,0,.09-1.08c0-.45-.18-.9-.18-1.35a13.43,13.43,0,0,1,.09-1.9,4.34,4.34,0,0,0,0-1.08,1.8,1.8,0,0,1,.27-1.9C266,86.57,265.94,86.21,266.3,85.76Z"/><path class="cls-1" d="M125.62,133.15s0,0,0-.06-.12-.1-.2-.1-.28-.15-.28-.33-.16-.28-.12-.37a.54.54,0,0,0,0-.36.54.54,0,0,1,0-.37c0-.12.09-.24,0-.37s-.09-.39,0-.58c0,0,0-.06,0-.09-.17-.12-.09-.24,0-.36s0-.22.09-.34a1.79,1.79,0,0,1,0-.46,10.92,10.92,0,0,1,.08-1.16s0-.06,0-.09c.24-.18.12-.46.2-.7a1.3,1.3,0,0,0,.12-.21,2.09,2.09,0,0,0,.12-.46.71.71,0,0,1,.25-.43s0,0,0-.06c0-.34.4-.52.57-.82s.32-.31.32-.52c0-.06.08-.13.16-.16a1.13,1.13,0,0,0,.37-.39c.08-.16.28-.25.45-.37s.08,0,.16,0a.73.73,0,0,1,.16-.15l.2-.15a1.25,1.25,0,0,1,.33-.13c.2-.09.41-.15.65-.24L130,123s0,0,0,0a2.66,2.66,0,0,0,1-.15,2.68,2.68,0,0,1,.69,0h.36a2.66,2.66,0,0,1,.69,0c.12,0,.28,0,.41.06a3.7,3.7,0,0,0,1.05.19.89.89,0,0,1,.37.12c.08,0,.24.06.08.15s0,.06,0,.12a.82.82,0,0,1,.65,0c.2.13.44.19.53.37s.2.15.32.18a1.22,1.22,0,0,1,.57.55.87.87,0,0,0,.32.31,1.12,1.12,0,0,1,.29.49,2.91,2.91,0,0,0,.2.39s.08,0,.08.06c0,.31.33.55.21.86a3.42,3.42,0,0,1-.21.55l-.08,0a.46.46,0,0,0-.36.24.17.17,0,0,1-.09,0,8.15,8.15,0,0,1-.85.22c-.2-.1-.53,0-.73-.16a4.12,4.12,0,0,1-.65-.52.15.15,0,0,1,0-.12.81.81,0,0,0-.36-.67s0,0,0-.06c-.05-.34-.49-.4-.7-.64a1.18,1.18,0,0,0-.77-.31h0a1.33,1.33,0,0,0-.61-.09,5.86,5.86,0,0,0-.73,0,1.92,1.92,0,0,0-1,.19c-.2.09-.49.12-.57.33-.24,0-.33.24-.53.34s-.2.09-.2.21,0,.12-.08.12a.6.6,0,0,0-.41.55.83.83,0,0,1-.16.31,1.73,1.73,0,0,0-.33.7c-.12.49-.16,1-.24,1.46a.33.33,0,0,1,0,.19c0,.15-.12.3,0,.42s0,.1,0,.16v.45c0,.25-.08.49.08.74,0,0,0,.09,0,.15s-.08.15,0,.21c0,.25.12.49.16.74a2.07,2.07,0,0,1,0,.51c0,.19,0,.37.25.52,0,0,.08.1,0,.13s0,.18.08.3.12.28.2.43a.24.24,0,0,0,.12.18l.49.49a.47.47,0,0,1,.16.21c0,.09.17.13.29.16s.12,0,.12,0a3.68,3.68,0,0,0,1.06.36,1.92,1.92,0,0,0,.4.09,2.69,2.69,0,0,0,.49,0,8.17,8.17,0,0,1,.85-.09.88.88,0,0,0,.61-.24s0,0,.08-.06a7.33,7.33,0,0,0,.69-.34c.08,0,.12-.15.16-.21s.17-.28.29-.37a.6.6,0,0,0,.16-.49c0-.21.16-.36.33-.51a2.76,2.76,0,0,1,.48-.25s.16,0,.25,0a.77.77,0,0,0,.28,0,.82.82,0,0,1,.65.09,1,1,0,0,0,.2.09v.13a.12.12,0,0,1,.08,0c.29-.06.37,0,.45.16s.2.18.2.27a2.06,2.06,0,0,1,.09.73v0c-.21.09-.17.24-.21.39a5.14,5.14,0,0,1-.24.58c0,.06-.08.15-.12.22s0,.09-.08.09a1.22,1.22,0,0,0-.41.36,2.56,2.56,0,0,1-.77.77c-.16.09-.37.12-.57.21a2.91,2.91,0,0,1-.41.27s0,0,0,0a9.23,9.23,0,0,1-1.74.4,15,15,0,0,0-1.63.15l0,0c-.28-.19-.61,0-.89-.1a.24.24,0,0,1-.16-.06s-.08,0-.13,0c-.32.06-.52-.15-.81-.15a.23.23,0,0,0-.12-.06l-.36-.09c-.05,0-.05,0-.09,0-.24-.13-.48-.22-.73-.34a2.55,2.55,0,0,1-.32-.27l-.61-.37a3.9,3.9,0,0,1-.73-.79,4.52,4.52,0,0,0-.45-.55,1.47,1.47,0,0,0-.12-.25s0,0,0,0c-.24-.21-.16-.55-.37-.79a1.23,1.23,0,0,1-.24-.61,1,1,0,0,1-.12-.46c0-.09,0-.18-.08-.27Z"/><path class="cls-1" d="M145.27,136.41c0-.06,0-.15,0-.24a1.23,1.23,0,0,1,.17-.28c.16-.18,0-.39.12-.58a1,1,0,0,0,.16-.58c0-.06,0-.18.08-.27l.16-.21.09-.06c0-.28.08-.55.12-.8s0-.49.28-.67l0,0,.25-.86c0-.12.08-.24.12-.39s.08-.06,0-.12a1,1,0,0,1,.24-.71c0-.09.12-.24.08-.33s.12-.4.25-.58v0c0-.22.12-.37.2-.55a2.06,2.06,0,0,0,.12-.7c0-.19.16-.37.2-.55l.13-.28c0-.06,0-.12.08-.18v-.34c.16-.24.08-.55.32-.79.08-.09,0-.24,0-.37s0-.15.08-.18a.49.49,0,0,0,.17-.46c0-.09.08-.18.12-.27s0-.06,0-.12a.28.28,0,0,1,.16-.31s0-.06,0-.12a1.18,1.18,0,0,1,.16-.49c.09-.18.13-.34.21-.52a1.31,1.31,0,0,1,.93-.52.65.65,0,0,1,.24,0,1.81,1.81,0,0,0,.57,0,.18.18,0,0,1,.12,0c.37.09.74.15,1.1.25a1.85,1.85,0,0,1,.49.24l0,0c.08.28.16.58.24.85s.21.49.29.77c0,0,0,0,0,.06a2.38,2.38,0,0,0,.36,1.13,2.78,2.78,0,0,1,.25.61c0,.43.32.82.36,1.25a.9.9,0,0,0,.12.43c.08.09,0,.21,0,.33l.13.22a3.11,3.11,0,0,1,.12.3,2.74,2.74,0,0,1,.24.8c0,.21.16.42.16.67,0,0,0,.06,0,.09a1,1,0,0,1,.09.33s0,0,0,.07c.2.12.16.27.2.45a5,5,0,0,1,.24.8c0,.21.25.36.21.58v.18c0,.12.08.21.12.34a2.21,2.21,0,0,1,.28.79,1.53,1.53,0,0,0,.16.73,2.47,2.47,0,0,1,.25.52c0,.12,0,.24,0,.37s.16.52.28.79a1.3,1.3,0,0,1,.08.89,3.55,3.55,0,0,1-.36.45.18.18,0,0,1-.12,0c-.37,0-.69,0-1,0h-.2a1.4,1.4,0,0,1-1.18-.3,4.63,4.63,0,0,1-.36-.7c0-.16,0-.37,0-.55a8.93,8.93,0,0,0-.37-.95.78.78,0,0,1,0-.3c0-.16-.12-.28-.2-.43s-.17-.52-.25-.79a.71.71,0,0,0-.57-.37c-.12,0-.2.09-.32.12a.9.9,0,0,1-.24.12s-.13,0-.17.06c-.32.19-.69.37-1,.55a.76.76,0,0,1-.21.06c-.12,0-.24.07-.28.16s-.08.09-.12.09c-.28,0-.45.15-.73.21a3.68,3.68,0,0,0-.53.18c-.24.07-.37.19-.37.37a.37.37,0,0,1-.16.31s0,.09,0,.12c.08.18,0,.33-.08.52s-.08.3-.12.42-.16.25-.2.37a.31.31,0,0,0-.09.18c0,.22-.2.43-.48.46s-.49.09-.73.12c0,0-.13.07-.13,0-.2-.09-.4,0-.6,0a3.12,3.12,0,0,1-.74-.09.46.46,0,0,1-.32-.36.46.46,0,0,0-.08-.25.34.34,0,0,1,.16-.46C145,136.87,145.19,136.66,145.27,136.41Zm5-4.42a.59.59,0,0,0,.69,0c.36-.19.73-.37,1-.58a.77.77,0,0,0,.29-.22c-.12-.21,0-.39-.21-.61s-.08-.33-.2-.52a.57.57,0,0,1,0-.27c0-.12,0-.24-.08-.37a.61.61,0,0,0-.53-.3.71.71,0,0,0-.24.06.45.45,0,0,0-.12.12c-.08.15-.25.28-.25.49a1.11,1.11,0,0,1-.12.49,1.54,1.54,0,0,1-.32.67,3.64,3.64,0,0,0-.21.61A.43.43,0,0,0,150.27,132Z"/><path class="cls-1" d="M168.09,126.07l0,.06a2.08,2.08,0,0,0,.24.06c0,.12,0,.27,0,.4a8.42,8.42,0,0,1,.08,1,1.79,1.79,0,0,1,0,.46v.09c.08.12.13.25,0,.37s0,.06,0,.09.13.15.09.27,0,.1.08.13a.35.35,0,0,1,.2.18c.08.15.24.21.49.18a2.63,2.63,0,0,1,.48.06,1.51,1.51,0,0,1,.37.06h.12c.12-.12.33-.09.49-.06s.32,0,.45,0,.24,0,.32,0a2.69,2.69,0,0,0,.49,0,.5.5,0,0,1,.36.1l.41.18a.65.65,0,0,1,.12.15c.08.06.12.12.16.15s.12.16.08.25a.66.66,0,0,0,0,.61.38.38,0,0,1-.16.55,2.11,2.11,0,0,1-1.3.36,1.74,1.74,0,0,0-.57,0c-.4,0-.81,0-1.22,0a3,3,0,0,1-.52,0c-.17,0-.33,0-.37.16s0,.06-.08.06c-.36,0-.28.3-.49.39v0c.25.18-.08.42,0,.61v0a3.2,3.2,0,0,0,0,.88.15.15,0,0,1,0,.12s0,.1,0,.12c.17.31,0,.59,0,.89a3.5,3.5,0,0,1,.08.64c0,.06,0,.12,0,.21s0,.07,0,.1a.47.47,0,0,1,0,.61c0,.06,0,.18,0,.27a1,1,0,0,1-.4,1.1c-.16.12-.53.12-.77.21a1.72,1.72,0,0,1-.9,0,2.66,2.66,0,0,1-.57-.27c-.08,0-.16-.12-.24-.15s-.16-.25-.16-.4V137c0-.06,0-.12,0-.18s0-.21,0-.3a2,2,0,0,1,0-.68v-.15a1.23,1.23,0,0,1,0-.76c0-.06,0-.15,0-.22,0-.24,0-.45,0-.67V134c-.12-.18,0-.36,0-.55a1.18,1.18,0,0,0-.08-.39c0-.13,0-.19,0-.28a.15.15,0,0,0,0-.18c0-.15-.12-.34-.08-.49s.08-.34,0-.55.12-.21,0-.37c0,0,0-.09,0-.09.16-.18,0-.33,0-.49s0-.15,0-.18,0-.3,0-.46a.63.63,0,0,1,0-.27v-.09c-.12-.19,0-.37,0-.55s0-.16,0-.22-.08-.06-.08-.09c.08-.3-.08-.58.08-.88,0-.13,0-.25,0-.37v-.18a.79.79,0,0,0,0-.67c0-.06,0-.13,0-.19s.12-.36,0-.52a.08.08,0,0,1,0-.06,8.87,8.87,0,0,0,0-1v-.16a.28.28,0,0,1,0-.3c.08-.09,0-.25,0-.34a.49.49,0,0,1,.16-.55,1.15,1.15,0,0,1,.69-.49.66.66,0,0,1,.24,0,2.67,2.67,0,0,0,.49,0,.91.91,0,0,1,.49,0l.16,0a4.72,4.72,0,0,1,.65,0h.57l.16,0a1.85,1.85,0,0,1,.81.06l.29,0c.2,0,.4,0,.57,0s.44,0,.69,0a8,8,0,0,0,.85,0,2,2,0,0,1,.73,0,3.45,3.45,0,0,1,.53,0,1.76,1.76,0,0,0,.53-.06h.08a4.64,4.64,0,0,1,.77.49c.12.09.08.25.12.37a1,1,0,0,1,0,.82.57.57,0,0,1-.37.4h0c-.2.27-.56.18-.85.21a1.51,1.51,0,0,1-.36.06.92.92,0,0,1-.29,0h0a3.75,3.75,0,0,0-.81,0h-.57a2.63,2.63,0,0,0-.49-.06h-.77c-.24,0-.53-.06-.65,0-.28.16-.73.09-.89.4a.36.36,0,0,0-.33.4Z"/><path class="cls-1" d="M192,137.45a.94.94,0,0,1,0,.34.39.39,0,0,1-.44.27.4.4,0,0,0-.21.06c-.28.22-.65.06-1,.15a1.16,1.16,0,0,0-.16,0h-.94a5.93,5.93,0,0,1-.73,0c-.28,0-.57.1-.85,0l-.16,0h-1.18l-.24,0a2.07,2.07,0,0,0-.61,0,1.39,1.39,0,0,1-.73,0c-.05,0-.17,0-.25,0-.4,0-.77,0-1.13,0h-.13c-.28-.15-.65-.21-.73-.55,0-.18-.12-.33,0-.48v0c-.24-.19-.08-.37,0-.55a.25.25,0,0,0,0-.16c0-.09-.08-.21-.08-.3,0-.25.08-.49.12-.7s0-.22,0-.31,0-.21,0-.3v-1.74s0,0,0-.06c0-.34,0-.65-.08-1a.35.35,0,0,1,0-.34.86.86,0,0,0,0-.33c0-.19-.08-.4-.12-.58v-.06c.16-.19.08-.37,0-.55s0-.13,0-.19a3.11,3.11,0,0,0,0-.61,2.06,2.06,0,0,1,0-.7.35.35,0,0,0,0-.18.53.53,0,0,1,0-.49c0-.24.12-.49-.08-.7a.09.09,0,0,1,0-.09,1.27,1.27,0,0,0,0-.86.55.55,0,0,1,0-.36c.16-.28,0-.49,0-.74s0-.24,0-.39,0-.13,0-.19c0-.24,0-.46.08-.67V124a.54.54,0,0,1,.29-.79c.12-.06.2-.16.32-.19a1.51,1.51,0,0,1,.37-.06,5.09,5.09,0,0,0,1.17,0,1,1,0,0,1,.29.06.65.65,0,0,0,.24,0,.42.42,0,0,1,.33,0,.88.88,0,0,0,.28,0h1.18a2.67,2.67,0,0,0,.49,0,1.49,1.49,0,0,1,.81,0,.56.56,0,0,0,.2,0,1.21,1.21,0,0,1,.65,0,.38.38,0,0,0,.2,0,.91.91,0,0,1,.69,0h.13a1.08,1.08,0,0,1,.81,0H191a.66.66,0,0,1,.61.16.08.08,0,0,1,0,.06c.4.12.28.36.32.58a2.25,2.25,0,0,1,.08.52.7.7,0,0,1-.08.27c0,.09-.08.21-.12.31s0,.21-.24.21-.37.15-.57.18a3.12,3.12,0,0,1-.53,0h-.32c-.08,0-.12,0-.17,0h-.6a.91.91,0,0,1-.49-.06c-.08-.06-.29,0-.45,0h-.61a.89.89,0,0,1-.28,0,.94.94,0,0,1-.29,0,.39.39,0,0,1-.36,0s0,0,0,0a1.47,1.47,0,0,0-1,.28c-.08.12-.24.18-.32.27a.21.21,0,0,0-.08.12c0,.19,0,.37,0,.58s0,.19,0,.28a1.9,1.9,0,0,1,0,.82,2.83,2.83,0,0,0,0,.58.21.21,0,0,1,0,.15.8.8,0,0,0,.2.92,3.23,3.23,0,0,0,.49.18l.53.09c.12,0,.24,0,.32,0a1.82,1.82,0,0,0,.57,0l.24,0a.3.3,0,0,0,.16,0c.13,0,.25,0,.37,0h.28a5.09,5.09,0,0,0,.65,0c.25,0,.41,0,.49.25,0,.06.2.12.29.18a.24.24,0,0,1,.12.18v.68a2.11,2.11,0,0,1-.12.48s0,.1,0,.1c-.37.21-.74.55-1.26.45a1.21,1.21,0,0,0-.86,0c-.24-.15-.48,0-.73,0s-.2,0-.32,0h-.16c-.09,0-.21,0-.33.06a.56.56,0,0,0-.24,0,4.52,4.52,0,0,0-.49.25.29.29,0,0,0-.12.37v.12l-.12.82v0c.16.18,0,.37,0,.55a4.54,4.54,0,0,0,.2,1.47,1,1,0,0,0,.65.45c.28.06.53-.06.81,0l.16,0,.25,0c.24.19.48,0,.69,0a.66.66,0,0,0,.24,0H189l.61,0h.61a5.29,5.29,0,0,1,.69,0,3,3,0,0,1,.81.22,1,1,0,0,1,.32.49s0,.12,0,.18C192.08,137,192,137.21,192,137.45Z"/><circle class="cls-1" cx="210.12" cy="130.58" r="4.49"/><circle class="cls-1" cx="106.9" cy="130.58" r="4.49"/></g></g></svg>